<svg width="48" height="48" viewBox="0 0 48 48" fill="none" xmlns="http://www.w3.org/2000/svg">
<mask id="mask0" style="mask-type:alpha" maskUnits="userSpaceOnUse" x="0" y="0" width="48" height="48">
<path d="M24 48C37.2548 48 48 37.2548 48 24C48 10.7452 37.2548 0 24 0C10.7452 0 0 10.7452 0 24C0 37.2548 10.7452 48 24 48Z" fill="white"/>
</mask>
<g mask="url(#mask0)">
<path d="M24 48C37.2548 48 48 37.2548 48 24C48 10.7452 37.2548 0 24 0C10.7452 0 0 10.7452 0 24C0 37.2548 10.7452 48 24 48Z" fill="#474748"/>
<path d="M18.9883 36.7129C19.0447 35.8974 19.2357 33.1401 19.3421 31.6673C19.3605 31.4134 19.3763 31.1976 19.3884 31.0365C19.3762 31.1977 19.3604 31.4135 19.3421 31.6675C14.836 30.7242 11.8683 27.2093 12.2184 22.9077C12.415 20.488 13.4212 18.9636 15.2041 17.4061C16.5539 16.227 18.819 14.0474 17.3207 12.0848C18.5838 11.94 19.878 12.9371 20.0608 14.1964C23.1403 8.13172 29.2327 12.7494 33.9009 10C33.597 11.5287 32.5017 12.8758 31.068 13.4837C33.8425 14.4054 34.6621 17.583 34.4849 19.6767C34.3048 21.8044 33.5362 23.4675 32.0398 24.5439C31.6663 23.0789 31.1913 21.6768 30.7949 20.607C31.1912 21.6768 31.6661 23.0789 32.0394 24.5437C32.57 26.6261 32.8962 28.8349 32.4984 30.3961C31.5101 34.2751 24.6834 32.6224 24.6834 32.6224L25.9369 36.3056C32.27 36.8245 37.1504 39.8363 37.6647 44.025C38.3108 49.2874 31.8211 54.4146 23.1695 55.4769C14.5179 56.5392 6.98053 53.1343 6.33439 47.8719C5.73498 42.9901 11.2766 38.2247 18.9883 36.7129ZM30.781 20.5696C30.781 20.5696 30.781 20.5696 30.781 20.5696C30.781 20.5696 30.781 20.5696 30.781 20.5696V20.5696ZM22.9079 22.8883C20.717 23.1246 19.0867 22.5841 19.0867 22.5841V25.8637C19.0867 25.8638 19.0867 25.8639 19.0867 25.8639V22.5843C19.0867 22.5843 20.717 23.1247 22.9078 22.8883L22.9079 22.8883ZM18.284 24.7544C17.8589 24.4182 17.2821 24.2909 16.5954 24.9528C15.0835 26.4108 19.0867 28.4149 19.0867 28.4149L19.1353 28.7613L19.0867 28.4146C19.0867 28.4146 15.0835 26.4105 16.5954 24.9531C17.2821 24.2911 17.8589 24.4183 18.2841 24.7544L18.284 24.7544Z" fill="#A5A4A3"/>
</g>
</svg>
